<!--?xml version="1.0" standalone="no"?-->
              <svg id="sw-js-blob-svg" viewBox="0 0 100 100" xmlns="http://www.w3.org/2000/svg" version="1.1">
                    <defs> 
                        <linearGradient id="sw-gradient" x1="0" x2="1" y1="1" y2="0">
                            <stop id="stop1" stop-color="rgba(255, 118.134, 53.357, 1)" offset="0%"></stop>
                            <stop id="stop2" stop-color="rgba(251, 168, 31, 1)" offset="100%"></stop>
                        </linearGradient>
                    </defs>
                <path fill="url(#sw-gradient)" d="M6.5,-12.6C8.3,-7.8,9.3,-5.5,15,-1.7C20.6,2.2,31,7.8,32.2,12.5C33.5,17.1,25.6,20.8,18.8,26.4C11.9,31.9,5.9,39.3,1.4,37.4C-3.2,35.5,-6.3,24.2,-9.5,17.5C-12.8,10.8,-16.1,8.5,-16,5.9C-16,3.2,-12.6,0.1,-14.3,-7.7C-15.9,-15.5,-22.7,-28,-21.1,-32.9C-19.6,-37.8,-9.8,-35.1,-3.7,-30C2.4,-25,4.8,-17.5,6.5,-12.6Z" width="100%" height="100%" transform="translate(50 50)" stroke-width="0" style="transition: all 0.3s ease 0s;"></path>
              </svg>