<!--?xml version="1.0" standalone="no"?-->
              <svg id="sw-js-blob-svg" viewBox="0 0 100 100" xmlns="http://www.w3.org/2000/svg" version="1.1">
                    <defs> 
                        <linearGradient id="sw-gradient" x1="0" x2="1" y1="1" y2="0">
                            <stop id="stop1" stop-color="rgba(248, 117, 55, 1)" offset="0%"></stop>
                            <stop id="stop2" stop-color="rgba(251, 168, 31, 1)" offset="100%"></stop>
                        </linearGradient>
                    </defs>
                <path fill="url(#sw-gradient)" d="M7.8,-8.4C13.4,-6.6,23.5,-8.8,25.1,-7.3C26.7,-5.9,19.7,-0.9,15.7,3.1C11.6,7.1,10.6,10.1,8.5,16.4C6.3,22.8,3.2,32.4,-2.5,35.9C-8.2,39.3,-16.4,36.6,-23.9,32C-31.4,27.4,-38.2,21,-35.3,15C-32.4,8.9,-19.9,3.3,-16.6,-4.9C-13.3,-13.2,-19.3,-23.9,-18,-27.2C-16.8,-30.5,-8.4,-26.3,-3.7,-21.2C1.1,-16.2,2.1,-10.3,7.8,-8.4Z" width="100%" height="100%" transform="translate(50 50)" stroke-width="0" style="transition: all 0.3s ease 0s;"></path>
              </svg>