<!--?xml version="1.0" standalone="no"?-->
              <svg id="sw-js-blob-svg" viewBox="0 0 100 100" xmlns="http://www.w3.org/2000/svg" version="1.1">
                    <defs> 
                        <linearGradient id="sw-gradient" x1="0" x2="1" y1="1" y2="0">
                            <stop id="stop1" stop-color="rgba(248, 117, 55, 1)" offset="0%"></stop>
                            <stop id="stop2" stop-color="rgba(251, 168, 31, 1)" offset="100%"></stop>
                        </linearGradient>
                    </defs>
                <path fill="url(#sw-gradient)" d="M8.5,-10.3C14.1,-7.6,23.8,-9.2,25.9,-7.3C28,-5.4,22.5,0,17.8,3.1C13.2,6.2,9.4,6.9,6.5,12.3C3.7,17.6,1.8,27.6,-0.9,28.9C-3.7,30.2,-7.4,22.7,-8,16.6C-8.7,10.6,-6.3,5.9,-7.9,2.3C-9.4,-1.4,-14.9,-4,-15.3,-5.6C-15.6,-7.2,-10.8,-7.8,-7.4,-11.2C-4,-14.7,-2,-21,-0.3,-20.6C1.4,-20.2,2.9,-13.1,8.5,-10.3Z" width="100%" height="100%" transform="translate(50 50)" stroke-width="0" style="transition: all 0.3s ease 0s;"></path>
              </svg>